TITLE "LOVE"
PERFORMER "Justy-Nasty"
REM DISCNUMBER 2
REM TOTALDISCS 2
REM DISCID 1602C603
FILE "LOVE.flac" WAVE
  TRACK 01 AUDIO
    TITLE "SUSIE"
    PERFORMER "Justy-Nasty"
    INDEX 00 00:00:00
    INDEX 01 00:00:37
  TRACK 02 AUDIO
    TITLE "VELVET HOUSE -Dansing with my self-"
    PERFORMER "Justy-Nasty"
    INDEX 01 04:19:15
  TRACK 03 AUDIO
    TITLE "WHITE SONG"
    PERFORMER "Justy-Nasty"
    INDEX 01 08:33:12
